# Tiled2Unity generated file. Do not modify by hand.
# Wavefront file for 'Adlez-map_mesh_0003.obj'

# Vertices (Count = 1024)
v -24 -1 0
v -25 -1 0
v -25 0 0
v -24 0 0
v -23 -1 0
v -24 -1 0
v -24 0 0
v -23 0 0
v -22 -1 0
v -23 -1 0
v -23 0 0
v -22 0 0
v -21 -1 0
v -22 -1 0
v -22 0 0
v -21 0 0
v -20 -1 0
v -21 -1 0
v -21 0 0
v -20 0 0
v -19 -1 0
v -20 -1 0
v -20 0 0
v -19 0 0
v -13 -1 0
v -14 -1 0
v -14 0 0
v -13 0 0
v -12 -1 0
v -13 -1 0
v -13 0 0
v -12 0 0
v -11 -1 0
v -12 -1 0
v -12 0 0
v -11 0 0
v -10 -1 0
v -11 -1 0
v -11 0 0
v -10 0 0
v -9 -1 0
v -10 -1 0
v -10 0 0
v -9 0 0
v -8 -1 0
v -9 -1 0
v -9 0 0
v -8 0 0
v -7 -1 0
v -8 -1 0
v -8 0 0
v -7 0 0
v -6 -1 0
v -7 -1 0
v -7 0 0
v -6 0 0
v -5 -1 0
v -6 -1 0
v -6 0 0
v -5 0 0
v -4 -1 0
v -5 -1 0
v -5 0 0
v -4 0 0
v -3 -1 0
v -4 -1 0
v -4 0 0
v -3 0 0
v -2 -1 0
v -3 -1 0
v -3 0 0
v -2 0 0
v -1 -1 0
v -2 -1 0
v -2 0 0
v -1 0 0
v 0 -1 0
v -1 -1 0
v -1 0 0
v 0 0 0
v -24 -2 0
v -25 -2 0
v -25 -1 0
v -24 -1 0
v -12 -2 0
v -13 -2 0
v -13 -1 0
v -12 -1 0
v -11 -2 0
v -12 -2 0
v -12 -1 0
v -11 -1 0
v -10 -2 0
v -11 -2 0
v -11 -1 0
v -10 -1 0
v -9 -2 0
v -10 -2 0
v -10 -1 0
v -9 -1 0
v -8 -2 0
v -9 -2 0
v -9 -1 0
v -8 -1 0
v -7 -2 0
v -8 -2 0
v -8 -1 0
v -7 -1 0
v -6 -2 0
v -7 -2 0
v -7 -1 0
v -6 -1 0
v -5 -2 0
v -6 -2 0
v -6 -1 0
v -5 -1 0
v -4 -2 0
v -5 -2 0
v -5 -1 0
v -4 -1 0
v -3 -2 0
v -4 -2 0
v -4 -1 0
v -3 -1 0
v 0 -2 0
v -1 -2 0
v -1 -1 0
v 0 -1 0
v -24 -3 0
v -25 -3 0
v -25 -2 0
v -24 -2 0
v -12 -3 0
v -13 -3 0
v -13 -2 0
v -12 -2 0
v -11 -3 0
v -12 -3 0
v -12 -2 0
v -11 -2 0
v -10 -3 0
v -11 -3 0
v -11 -2 0
v -10 -2 0
v -9 -3 0
v -10 -3 0
v -10 -2 0
v -9 -2 0
v -8 -3 0
v -9 -3 0
v -9 -2 0
v -8 -2 0
v -7 -3 0
v -8 -3 0
v -8 -2 0
v -7 -2 0
v -6 -3 0
v -7 -3 0
v -7 -2 0
v -6 -2 0
v -5 -3 0
v -6 -3 0
v -6 -2 0
v -5 -2 0
v -4 -3 0
v -5 -3 0
v -5 -2 0
v -4 -2 0
v -3 -3 0
v -4 -3 0
v -4 -2 0
v -3 -2 0
v 0 -3 0
v -1 -3 0
v -1 -2 0
v 0 -2 0
v -24 -4 0
v -25 -4 0
v -25 -3 0
v -24 -3 0
v -23 -4 0
v -24 -4 0
v -24 -3 0
v -23 -3 0
v -22 -4 0
v -23 -4 0
v -23 -3 0
v -22 -3 0
v -12 -4 0
v -13 -4 0
v -13 -3 0
v -12 -3 0
v -11 -4 0
v -12 -4 0
v -12 -3 0
v -11 -3 0
v -10 -4 0
v -11 -4 0
v -11 -3 0
v -10 -3 0
v -9 -4 0
v -10 -4 0
v -10 -3 0
v -9 -3 0
v -8 -4 0
v -9 -4 0
v -9 -3 0
v -8 -3 0
v -7 -4 0
v -8 -4 0
v -8 -3 0
v -7 -3 0
v -6 -4 0
v -7 -4 0
v -7 -3 0
v -6 -3 0
v -5 -4 0
v -6 -4 0
v -6 -3 0
v -5 -3 0
v -4 -4 0
v -5 -4 0
v -5 -3 0
v -4 -3 0
v -3 -4 0
v -4 -4 0
v -4 -3 0
v -3 -3 0
v -2 -4 0
v -3 -4 0
v -3 -3 0
v -2 -3 0
v -1 -4 0
v -2 -4 0
v -2 -3 0
v -1 -3 0
v 0 -4 0
v -1 -4 0
v -1 -3 0
v 0 -3 0
v -24 -5 0
v -25 -5 0
v -25 -4 0
v -24 -4 0
v -23 -5 0
v -24 -5 0
v -24 -4 0
v -23 -4 0
v -22 -5 0
v -23 -5 0
v -23 -4 0
v -22 -4 0
v -12 -5 0
v -13 -5 0
v -13 -4 0
v -12 -4 0
v -11 -5 0
v -12 -5 0
v -12 -4 0
v -11 -4 0
v -10 -5 0
v -11 -5 0
v -11 -4 0
v -10 -4 0
v -9 -5 0
v -10 -5 0
v -10 -4 0
v -9 -4 0
v -8 -5 0
v -9 -5 0
v -9 -4 0
v -8 -4 0
v -7 -5 0
v -8 -5 0
v -8 -4 0
v -7 -4 0
v -6 -5 0
v -7 -5 0
v -7 -4 0
v -6 -4 0
v -5 -5 0
v -6 -5 0
v -6 -4 0
v -5 -4 0
v -4 -5 0
v -5 -5 0
v -5 -4 0
v -4 -4 0
v -3 -5 0
v -4 -5 0
v -4 -4 0
v -3 -4 0
v -2 -5 0
v -3 -5 0
v -3 -4 0
v -2 -4 0
v -1 -5 0
v -2 -5 0
v -2 -4 0
v -1 -4 0
v 0 -5 0
v -1 -5 0
v -1 -4 0
v 0 -4 0
v -24 -6 0
v -25 -6 0
v -25 -5 0
v -24 -5 0
v -21 -6 0
v -22 -6 0
v -22 -5 0
v -21 -5 0
v -20 -6 0
v -21 -6 0
v -21 -5 0
v -20 -5 0
v -11 -6 0
v -12 -6 0
v -12 -5 0
v -11 -5 0
v -7 -6 0
v -8 -6 0
v -8 -5 0
v -7 -5 0
v -3 -6 0
v -4 -6 0
v -4 -5 0
v -3 -5 0
v 0 -6 0
v -1 -6 0
v -1 -5 0
v 0 -5 0
v -24 -7 0
v -25 -7 0
v -25 -6 0
v -24 -6 0
v -21 -7 0
v -22 -7 0
v -22 -6 0
v -21 -6 0
v -20 -7 0
v -21 -7 0
v -21 -6 0
v -20 -6 0
v -11 -7 0
v -12 -7 0
v -12 -6 0
v -11 -6 0
v -3 -7 0
v -4 -7 0
v -4 -6 0
v -3 -6 0
v 0 -7 0
v -1 -7 0
v -1 -6 0
v 0 -6 0
v -24 -8 0
v -25 -8 0
v -25 -7 0
v -24 -7 0
v -11 -8 0
v -12 -8 0
v -12 -7 0
v -11 -7 0
v -10 -8 0
v -11 -8 0
v -11 -7 0
v -10 -7 0
v -9 -8 0
v -10 -8 0
v -10 -7 0
v -9 -7 0
v -8 -8 0
v -9 -8 0
v -9 -7 0
v -8 -7 0
v -7 -8 0
v -8 -8 0
v -8 -7 0
v -7 -7 0
v -3 -8 0
v -4 -8 0
v -4 -7 0
v -3 -7 0
v 0 -8 0
v -1 -8 0
v -1 -7 0
v 0 -7 0
v -24 -9 0
v -25 -9 0
v -25 -8 0
v -24 -8 0
v -23 -9 0
v -24 -9 0
v -24 -8 0
v -23 -8 0
v -22 -9 0
v -23 -9 0
v -23 -8 0
v -22 -8 0
v -21 -9 0
v -22 -9 0
v -22 -8 0
v -21 -8 0
v -20 -9 0
v -21 -9 0
v -21 -8 0
v -20 -8 0
v -7 -9 0
v -8 -9 0
v -8 -8 0
v -7 -8 0
v -3 -9 0
v -4 -9 0
v -4 -8 0
v -3 -8 0
v 0 -9 0
v -1 -9 0
v -1 -8 0
v 0 -8 0
v -24 -10 0
v -25 -10 0
v -25 -9 0
v -24 -9 0
v -21 -10 0
v -22 -10 0
v -22 -9 0
v -21 -9 0
v -20 -10 0
v -21 -10 0
v -21 -9 0
v -20 -9 0
v -14 -10 0
v -15 -10 0
v -15 -9 0
v -14 -9 0
v -13 -10 0
v -14 -10 0
v -14 -9 0
v -13 -9 0
v -7 -10 0
v -8 -10 0
v -8 -9 0
v -7 -9 0
v -3 -10 0
v -4 -10 0
v -4 -9 0
v -3 -9 0
v 0 -10 0
v -1 -10 0
v -1 -9 0
v 0 -9 0
v -24 -11 0
v -25 -11 0
v -25 -10 0
v -24 -10 0
v -21 -11 0
v -22 -11 0
v -22 -10 0
v -21 -10 0
v -20 -11 0
v -21 -11 0
v -21 -10 0
v -20 -10 0
v -14 -11 0
v -15 -11 0
v -15 -10 0
v -14 -10 0
v -13 -11 0
v -14 -11 0
v -14 -10 0
v -13 -10 0
v -7 -11 0
v -8 -11 0
v -8 -10 0
v -7 -10 0
v -3 -11 0
v -4 -11 0
v -4 -10 0
v -3 -10 0
v 0 -11 0
v -1 -11 0
v -1 -10 0
v 0 -10 0
v -14 -12 0
v -15 -12 0
v -15 -11 0
v -14 -11 0
v -13 -12 0
v -14 -12 0
v -14 -11 0
v -13 -11 0
v -7 -12 0
v -8 -12 0
v -8 -11 0
v -7 -11 0
v -3 -12 0
v -4 -12 0
v -4 -11 0
v -3 -11 0
v 0 -12 0
v -1 -12 0
v -1 -11 0
v 0 -11 0
v -7 -13 0
v -8 -13 0
v -8 -12 0
v -7 -12 0
v -3 -13 0
v -4 -13 0
v -4 -12 0
v -3 -12 0
v 0 -13 0
v -1 -13 0
v -1 -12 0
v 0 -12 0
v -7 -14 0
v -8 -14 0
v -8 -13 0
v -7 -13 0
v -3 -14 0
v -4 -14 0
v -4 -13 0
v -3 -13 0
v 0 -14 0
v -1 -14 0
v -1 -13 0
v 0 -13 0
v -24 -15 0
v -25 -15 0
v -25 -14 0
v -24 -14 0
v -7 -15 0
v -8 -15 0
v -8 -14 0
v -7 -14 0
v -3 -15 0
v -4 -15 0
v -4 -14 0
v -3 -14 0
v 0 -15 0
v -1 -15 0
v -1 -14 0
v 0 -14 0
v -24 -16 0
v -25 -16 0
v -25 -15 0
v -24 -15 0
v -15 -16 0
v -16 -16 0
v -16 -15 0
v -15 -15 0
v -14 -16 0
v -15 -16 0
v -15 -15 0
v -14 -15 0
v -13 -16 0
v -14 -16 0
v -14 -15 0
v -13 -15 0
v -24 -17 0
v -25 -17 0
v -25 -16 0
v -24 -16 0
v -23 -17 0
v -24 -17 0
v -24 -16 0
v -23 -16 0
v -22 -17 0
v -23 -17 0
v -23 -16 0
v -22 -16 0
v -15 -17 0
v -16 -17 0
v -16 -16 0
v -15 -16 0
v -14 -17 0
v -15 -17 0
v -15 -16 0
v -14 -16 0
v -13 -17 0
v -14 -17 0
v -14 -16 0
v -13 -16 0
v -24 -18 0
v -25 -18 0
v -25 -17 0
v -24 -17 0
v -23 -18 0
v -24 -18 0
v -24 -17 0
v -23 -17 0
v -22 -18 0
v -23 -18 0
v -23 -17 0
v -22 -17 0
v -15 -18 0
v -16 -18 0
v -16 -17 0
v -15 -17 0
v -14 -18 0
v -15 -18 0
v -15 -17 0
v -14 -17 0
v -13 -18 0
v -14 -18 0
v -14 -17 0
v -13 -17 0
v -24 -19 0
v -25 -19 0
v -25 -18 0
v -24 -18 0
v -23 -19 0
v -24 -19 0
v -24 -18 0
v -23 -18 0
v -22 -19 0
v -23 -19 0
v -23 -18 0
v -22 -18 0
v -14 -19 0
v -15 -19 0
v -15 -18 0
v -14 -18 0
v -13 -19 0
v -14 -19 0
v -14 -18 0
v -13 -18 0
v -12 -19 0
v -13 -19 0
v -13 -18 0
v -12 -18 0
v -11 -19 0
v -12 -19 0
v -12 -18 0
v -11 -18 0
v -10 -19 0
v -11 -19 0
v -11 -18 0
v -10 -18 0
v -9 -19 0
v -10 -19 0
v -10 -18 0
v -9 -18 0
v -6 -19 0
v -7 -19 0
v -7 -18 0
v -6 -18 0
v -5 -19 0
v -6 -19 0
v -6 -18 0
v -5 -18 0
v -2 -19 0
v -3 -19 0
v -3 -18 0
v -2 -18 0
v -1 -19 0
v -2 -19 0
v -2 -18 0
v -1 -18 0
v 0 -19 0
v -1 -19 0
v -1 -18 0
v 0 -18 0
v -24 -20 0
v -25 -20 0
v -25 -19 0
v -24 -19 0
v -23 -20 0
v -24 -20 0
v -24 -19 0
v -23 -19 0
v -22 -20 0
v -23 -20 0
v -23 -19 0
v -22 -19 0
v -14 -20 0
v -15 -20 0
v -15 -19 0
v -14 -19 0
v -13 -20 0
v -14 -20 0
v -14 -19 0
v -13 -19 0
v -12 -20 0
v -13 -20 0
v -13 -19 0
v -12 -19 0
v -11 -20 0
v -12 -20 0
v -12 -19 0
v -11 -19 0
v -10 -20 0
v -11 -20 0
v -11 -19 0
v -10 -19 0
v -9 -20 0
v -10 -20 0
v -10 -19 0
v -9 -19 0
v -8 -20 0
v -9 -20 0
v -9 -19 0
v -8 -19 0
v -7 -20 0
v -8 -20 0
v -8 -19 0
v -7 -19 0
v -6 -20 0
v -7 -20 0
v -7 -19 0
v -6 -19 0
v -5 -20 0
v -6 -20 0
v -6 -19 0
v -5 -19 0
v -2 -20 0
v -3 -20 0
v -3 -19 0
v -2 -19 0
v -1 -20 0
v -2 -20 0
v -2 -19 0
v -1 -19 0
v 0 -20 0
v -1 -20 0
v -1 -19 0
v 0 -19 0
v -24 -21 0
v -25 -21 0
v -25 -20 0
v -24 -20 0
v -23 -21 0
v -24 -21 0
v -24 -20 0
v -23 -20 0
v -22 -21 0
v -23 -21 0
v -23 -20 0
v -22 -20 0
v -14 -21 0
v -15 -21 0
v -15 -20 0
v -14 -20 0
v -13 -21 0
v -14 -21 0
v -14 -20 0
v -13 -20 0
v -12 -21 0
v -13 -21 0
v -13 -20 0
v -12 -20 0
v -11 -21 0
v -12 -21 0
v -12 -20 0
v -11 -20 0
v -10 -21 0
v -11 -21 0
v -11 -20 0
v -10 -20 0
v -9 -21 0
v -10 -21 0
v -10 -20 0
v -9 -20 0
v -8 -21 0
v -9 -21 0
v -9 -20 0
v -8 -20 0
v -7 -21 0
v -8 -21 0
v -8 -20 0
v -7 -20 0
v -4 -21 0
v -5 -21 0
v -5 -20 0
v -4 -20 0
v -3 -21 0
v -4 -21 0
v -4 -20 0
v -3 -20 0
v -2 -21 0
v -3 -21 0
v -3 -20 0
v -2 -20 0
v -1 -21 0
v -2 -21 0
v -2 -20 0
v -1 -20 0
v 0 -21 0
v -1 -21 0
v -1 -20 0
v 0 -20 0
v -24 -22 0
v -25 -22 0
v -25 -21 0
v -24 -21 0
v -23 -22 0
v -24 -22 0
v -24 -21 0
v -23 -21 0
v -22 -22 0
v -23 -22 0
v -23 -21 0
v -22 -21 0
v -4 -22 0
v -5 -22 0
v -5 -21 0
v -4 -21 0
v -3 -22 0
v -4 -22 0
v -4 -21 0
v -3 -21 0
v -2 -22 0
v -3 -22 0
v -3 -21 0
v -2 -21 0
v -1 -22 0
v -2 -22 0
v -2 -21 0
v -1 -21 0
v 0 -22 0
v -1 -22 0
v -1 -21 0
v 0 -21 0
v -24 -23 0
v -25 -23 0
v -25 -22 0
v -24 -22 0
v -23 -23 0
v -24 -23 0
v -24 -22 0
v -23 -22 0
v -22 -23 0
v -23 -23 0
v -23 -22 0
v -22 -22 0
v -14 -23 0
v -15 -23 0
v -15 -22 0
v -14 -22 0
v -13 -23 0
v -14 -23 0
v -14 -22 0
v -13 -22 0
v -12 -23 0
v -13 -23 0
v -13 -22 0
v -12 -22 0
v -11 -23 0
v -12 -23 0
v -12 -22 0
v -11 -22 0
v -10 -23 0
v -11 -23 0
v -11 -22 0
v -10 -22 0
v -9 -23 0
v -10 -23 0
v -10 -22 0
v -9 -22 0
v -6 -23 0
v -7 -23 0
v -7 -22 0
v -6 -22 0
v -5 -23 0
v -6 -23 0
v -6 -22 0
v -5 -22 0
v -4 -23 0
v -5 -23 0
v -5 -22 0
v -4 -22 0
v -3 -23 0
v -4 -23 0
v -4 -22 0
v -3 -22 0
v 0 -23 0
v -1 -23 0
v -1 -22 0
v 0 -22 0
v -24 -24 0
v -25 -24 0
v -25 -23 0
v -24 -23 0
v -23 -24 0
v -24 -24 0
v -24 -23 0
v -23 -23 0
v -22 -24 0
v -23 -24 0
v -23 -23 0
v -22 -23 0
v -14 -24 0
v -15 -24 0
v -15 -23 0
v -14 -23 0
v -13 -24 0
v -14 -24 0
v -14 -23 0
v -13 -23 0
v -12 -24 0
v -13 -24 0
v -13 -23 0
v -12 -23 0
v -11 -24 0
v -12 -24 0
v -12 -23 0
v -11 -23 0
v -10 -24 0
v -11 -24 0
v -11 -23 0
v -10 -23 0
v -9 -24 0
v -10 -24 0
v -10 -23 0
v -9 -23 0
v -6 -24 0
v -7 -24 0
v -7 -23 0
v -6 -23 0
v -5 -24 0
v -6 -24 0
v -6 -23 0
v -5 -23 0
v -4 -24 0
v -5 -24 0
v -5 -23 0
v -4 -23 0
v -3 -24 0
v -4 -24 0
v -4 -23 0
v -3 -23 0
v 0 -24 0
v -1 -24 0
v -1 -23 0
v 0 -23 0
v -24 -25 0
v -25 -25 0
v -25 -24 0
v -24 -24 0
v -23 -25 0
v -24 -25 0
v -24 -24 0
v -23 -24 0
v -22 -25 0
v -23 -25 0
v -23 -24 0
v -22 -24 0
v -21 -25 0
v -22 -25 0
v -22 -24 0
v -21 -24 0
v -17 -25 0
v -18 -25 0
v -18 -24 0
v -17 -24 0
v -16 -25 0
v -17 -25 0
v -17 -24 0
v -16 -24 0
v -15 -25 0
v -16 -25 0
v -16 -24 0
v -15 -24 0
v -14 -25 0
v -15 -25 0
v -15 -24 0
v -14 -24 0
v -13 -25 0
v -14 -25 0
v -14 -24 0
v -13 -24 0
v -12 -25 0
v -13 -25 0
v -13 -24 0
v -12 -24 0
v -11 -25 0
v -12 -25 0
v -12 -24 0
v -11 -24 0
v -10 -25 0
v -11 -25 0
v -11 -24 0
v -10 -24 0
v -9 -25 0
v -10 -25 0
v -10 -24 0
v -9 -24 0
v -8 -25 0
v -9 -25 0
v -9 -24 0
v -8 -24 0
v -7 -25 0
v -8 -25 0
v -8 -24 0
v -7 -24 0
v -6 -25 0
v -7 -25 0
v -7 -24 0
v -6 -24 0
v -5 -25 0
v -6 -25 0
v -6 -24 0
v -5 -24 0
v -4 -25 0
v -5 -25 0
v -5 -24 0
v -4 -24 0
v -3 -25 0
v -4 -25 0
v -4 -24 0
v -3 -24 0
v -2 -25 0
v -3 -25 0
v -3 -24 0
v -2 -24 0
v -1 -25 0
v -2 -25 0
v -2 -24 0
v -1 -24 0
v 0 -25 0
v -1 -25 0
v -1 -24 0
v 0 -24 0

# Texture cooridinates (Count = 175)
vt 0.15 0.5277778
vt 0.175 0.5277778
vt 0.175 0.5555556
vt 0.15 0.5555556
vt 0.125 0.4444444
vt 0.15 0.4444444
vt 0.15 0.4722222
vt 0.125 0.4722222
vt 0.125 0.5
vt 0.15 0.5
vt 0.125 0.5277778
vt 0.175 0.5
vt 0.375 0.9722222
vt 0.4 0.9722222
vt 0.4 1
vt 0.375 1
vt 0.35 0.9722222
vt 0.35 1
vt 0.325 0.9722222
vt 0.325 1
vt 0.3 0.9722222
vt 0.3 1
vt 0.275 0.9722222
vt 0.275 1
vt 0.25 0.9722222
vt 0.25 1
vt 0.225 0.9722222
vt 0.225 1
vt 0.2 0.9722222
vt 0.2 1
vt 0.175 0.9722222
vt 0.175 1
vt 0.15 0.9722222
vt 0.15 1
vt 0.125 0.5555556
vt 0.175 0.4722222
vt 0.2 0.4722222
vt 0.2 0.5
vt 0.375 0.9444444
vt 0.4 0.9444444
vt 0.35 0.9444444
vt 0.325 0.9444444
vt 0.3 0.9444444
vt 0.275 0.9444444
vt 0.25 0.9444444
vt 0.225 0.9444444
vt 0.2 0.9444444
vt 0.175 0.9444444
vt 0.15 0.9444444
vt 0.375 0.9166667
vt 0.4 0.9166667
vt 0.35 0.9166667
vt 0.325 0.9166667
vt 0.3 0.9166667
vt 0.275 0.9166667
vt 0.25 0.9166667
vt 0.225 0.9166667
vt 0.2 0.9166667
vt 0.175 0.9166667
vt 0.15 0.9166667
vt 0.35 0.75
vt 0.375 0.75
vt 0.375 0.7777778
vt 0.35 0.7777778
vt 0.325 0.75
vt 0.325 0.7777778
vt 0.375 0.8888889
vt 0.4 0.8888889
vt 0.35 0.8888889
vt 0.325 0.8888889
vt 0.3 0.8888889
vt 0.275 0.8888889
vt 0.25 0.8888889
vt 0.225 0.8888889
vt 0.2 0.8888889
vt 0.175 0.8888889
vt 0.15 0.8888889
vt 0.85 0.8333333
vt 0.875 0.8333333
vt 0.875 0.8611111
vt 0.85 0.8611111
vt 0.825 0.8333333
vt 0.825 0.8611111
vt 0.35 0.7222222
vt 0.375 0.7222222
vt 0.325 0.7222222
vt 0.375 0.8611111
vt 0.4 0.8611111
vt 0.35 0.8611111
vt 0.325 0.8611111
vt 0.3 0.8611111
vt 0.275 0.8611111
vt 0.25 0.8611111
vt 0.225 0.8611111
vt 0.2 0.8611111
vt 0.175 0.8611111
vt 0.15 0.8611111
vt 0.85 0.8055556
vt 0.875 0.8055556
vt 0.825 0.8055556
vt 0.125 0.9444444
vt 0.125 0.9722222
vt 0.1 0.9444444
vt 0.1 0.9722222
vt 0 0.5833334
vt 0.025 0.5833334
vt 0.025 0.6111111
vt 0 0.6111111
vt 0.05 0.5833334
vt 0.075 0.5833334
vt 0.075 0.6111111
vt 0.05 0.6111111
vt 0.125 0.9166667
vt 0.1 0.9166667
vt 0.1 0.5833334
vt 0.1 0.6111111
vt 0.075 0.5555556
vt 0.1 0.5555556
vt 0.05 0.5555556
vt 0.05 0.6388889
vt 0.025 0.6388889
vt 0.25 0.8333333
vt 0.275 0.8333333
vt 0.225 0.8333333
vt 0.2 0.8333333
vt 0.175 0.8333333
vt 0.25 0.6666666
vt 0.275 0.6666666
vt 0.275 0.6944444
vt 0.25 0.6944444
vt 0.225 0.6666666
vt 0.225 0.6944444
vt 0.35 0.8333333
vt 0.375 0.8333333
vt 0.325 0.8333333
vt 0.25 0.6388889
vt 0.275 0.6388889
vt 0.225 0.6388889
vt 0.35 0.8055556
vt 0.375 0.8055556
vt 0.325 0.8055556
vt 0 0.5555556
vt 0.025 0.5555556
vt 0.6 0.7222222
vt 0.625 0.7222222
vt 0.625 0.75
vt 0.6 0.75
vt 0.575 0.7222222
vt 0.575 0.75
vt 0.55 0.7222222
vt 0.55 0.75
vt 0.9 0.75
vt 0.925 0.75
vt 0.925 0.7777778
vt 0.9 0.7777778
vt 0.875 0.75
vt 0.875 0.7777778
vt 0.6 0.6944444
vt 0.625 0.6944444
vt 0.575 0.6944444
vt 0.55 0.6944444
vt 0.9 0.7222222
vt 0.925 0.7222222
vt 0.875 0.7222222
vt 0.6 0.6666666
vt 0.625 0.6666666
vt 0.575 0.6666666
vt 0.55 0.6666666
vt 0.125 0.8333333
vt 0.15 0.8333333
vt 0.125 0.8611111
vt 0.1 0.8333333
vt 0.1 0.8611111
vt 0.075 0.8333333
vt 0.075 0.8611111

# Normal
vn 0 0 -1

# Mesh description
g Adlez-map_mesh_0003

# Faces
f 1/1/1 2/2/1 3/3/1 4/4/1
f 5/5/1 6/6/1 7/7/1 8/8/1
f 9/5/1 10/6/1 11/7/1 12/8/1
f 13/5/1 14/6/1 15/7/1 16/8/1
f 17/5/1 18/6/1 19/7/1 20/8/1
f 21/9/1 22/10/1 23/1/1 24/11/1
f 25/10/1 26/12/1 27/2/1 28/1/1
f 29/13/1 30/14/1 31/15/1 32/16/1
f 33/17/1 34/13/1 35/16/1 36/18/1
f 37/19/1 38/17/1 39/18/1 40/20/1
f 41/21/1 42/19/1 43/20/1 44/22/1
f 45/23/1 46/21/1 47/22/1 48/24/1
f 49/25/1 50/23/1 51/24/1 52/26/1
f 53/27/1 54/25/1 55/26/1 56/28/1
f 57/29/1 58/27/1 59/28/1 60/30/1
f 61/31/1 62/29/1 63/30/1 64/32/1
f 65/33/1 66/31/1 67/32/1 68/34/1
f 69/5/1 70/6/1 71/7/1 72/8/1
f 73/5/1 74/6/1 75/7/1 76/8/1
f 77/11/1 78/1/1 79/4/1 80/35/1
f 81/36/1 82/37/1 83/38/1 84/12/1
f 85/39/1 86/40/1 87/14/1 88/13/1
f 89/41/1 90/39/1 91/13/1 92/17/1
f 93/42/1 94/41/1 95/17/1 96/19/1
f 97/43/1 98/42/1 99/19/1 100/21/1
f 101/44/1 102/43/1 103/21/1 104/23/1
f 105/45/1 106/44/1 107/23/1 108/25/1
f 109/46/1 110/45/1 111/25/1 112/27/1
f 113/47/1 114/46/1 115/27/1 116/29/1
f 117/48/1 118/47/1 119/29/1 120/31/1
f 121/49/1 122/48/1 123/31/1 124/33/1
f 125/36/1 126/37/1 127/38/1 128/12/1
f 129/36/1 130/37/1 131/38/1 132/12/1
f 133/50/1 134/51/1 135/40/1 136/39/1
f 137/52/1 138/50/1 139/39/1 140/41/1
f 141/53/1 142/52/1 143/41/1 144/42/1
f 145/54/1 146/53/1 147/42/1 148/43/1
f 149/55/1 150/54/1 151/43/1 152/44/1
f 153/56/1 154/55/1 155/44/1 156/45/1
f 157/57/1 158/56/1 159/45/1 160/46/1
f 161/58/1 162/57/1 163/46/1 164/47/1
f 165/59/1 166/58/1 167/47/1 168/48/1
f 169/60/1 170/59/1 171/48/1 172/49/1
f 173/36/1 174/37/1 175/38/1 176/12/1
f 177/36/1 178/37/1 179/38/1 180/12/1
f 181/61/1 182/62/1 183/63/1 184/64/1
f 185/65/1 186/61/1 187/64/1 188/66/1
f 189/67/1 190/68/1 191/51/1 192/50/1
f 193/69/1 194/67/1 195/50/1 196/52/1
f 197/70/1 198/69/1 199/52/1 200/53/1
f 201/71/1 202/70/1 203/53/1 204/54/1
f 205/72/1 206/71/1 207/54/1 208/55/1
f 209/73/1 210/72/1 211/55/1 212/56/1
f 213/74/1 214/73/1 215/56/1 216/57/1
f 217/75/1 218/74/1 219/57/1 220/58/1
f 221/76/1 222/75/1 223/58/1 224/59/1
f 225/77/1 226/76/1 227/59/1 228/60/1
f 229/78/1 230/79/1 231/80/1 232/81/1
f 233/82/1 234/78/1 235/81/1 236/83/1
f 237/36/1 238/37/1 239/38/1 240/12/1
f 241/36/1 242/37/1 243/38/1 244/12/1
f 245/84/1 246/85/1 247/62/1 248/61/1
f 249/86/1 250/84/1 251/61/1 252/65/1
f 253/87/1 254/88/1 255/68/1 256/67/1
f 257/89/1 258/87/1 259/67/1 260/69/1
f 261/90/1 262/89/1 263/69/1 264/70/1
f 265/91/1 266/90/1 267/70/1 268/71/1
f 269/92/1 270/91/1 271/71/1 272/72/1
f 273/93/1 274/92/1 275/72/1 276/73/1
f 277/94/1 278/93/1 279/73/1 280/74/1
f 281/95/1 282/94/1 283/74/1 284/75/1
f 285/96/1 286/95/1 287/75/1 288/76/1
f 289/97/1 290/96/1 291/76/1 292/77/1
f 293/98/1 294/99/1 295/79/1 296/78/1
f 297/100/1 298/98/1 299/78/1 300/82/1
f 301/36/1 302/37/1 303/38/1 304/12/1
f 305/36/1 306/37/1 307/38/1 308/12/1
f 309/101/1 310/49/1 311/33/1 312/102/1
f 313/103/1 314/101/1 315/102/1 316/104/1
f 317/105/1 318/106/1 319/107/1 320/108/1
f 321/109/1 322/110/1 323/111/1 324/112/1
f 325/105/1 326/106/1 327/107/1 328/108/1
f 329/36/1 330/37/1 331/38/1 332/12/1
f 333/36/1 334/37/1 335/38/1 336/12/1
f 337/113/1 338/60/1 339/49/1 340/101/1
f 341/114/1 342/113/1 343/101/1 344/103/1
f 345/110/1 346/115/1 347/116/1 348/111/1
f 349/106/1 350/109/1 351/112/1 352/107/1
f 353/36/1 354/37/1 355/38/1 356/12/1
f 357/36/1 358/37/1 359/38/1 360/12/1
f 361/117/1 362/118/1 363/115/1 364/110/1
f 365/119/1 366/117/1 367/110/1 368/109/1
f 369/119/1 370/117/1 371/110/1 372/109/1
f 373/119/1 374/117/1 375/110/1 376/109/1
f 377/107/1 378/112/1 379/120/1 380/121/1
f 381/106/1 382/109/1 383/112/1 384/107/1
f 385/36/1 386/37/1 387/38/1 388/12/1
f 389/36/1 390/37/1 391/38/1 392/12/1
f 393/122/1 394/123/1 395/92/1 396/93/1
f 397/124/1 398/122/1 399/93/1 400/94/1
f 401/125/1 402/124/1 403/94/1 404/95/1
f 405/126/1 406/125/1 407/95/1 408/96/1
f 409/110/1 410/115/1 411/116/1 412/111/1
f 413/106/1 414/109/1 415/112/1 416/107/1
f 417/36/1 418/37/1 419/38/1 420/12/1
f 421/36/1 422/37/1 423/38/1 424/12/1
f 425/127/1 426/128/1 427/129/1 428/130/1
f 429/131/1 430/127/1 431/130/1 432/132/1
f 433/133/1 434/134/1 435/87/1 436/89/1
f 437/135/1 438/133/1 439/89/1 440/90/1
f 441/110/1 442/115/1 443/116/1 444/111/1
f 445/106/1 446/109/1 447/112/1 448/107/1
f 449/36/1 450/37/1 451/38/1 452/12/1
f 453/9/1 454/10/1 455/1/1 456/11/1
f 457/136/1 458/137/1 459/128/1 460/127/1
f 461/138/1 462/136/1 463/127/1 464/131/1
f 465/139/1 466/140/1 467/134/1 468/133/1
f 469/141/1 470/139/1 471/133/1 472/135/1
f 473/110/1 474/115/1 475/116/1 476/111/1
f 477/106/1 478/109/1 479/112/1 480/107/1
f 481/36/1 482/37/1 483/38/1 484/12/1
f 485/64/1 486/63/1 487/140/1 488/139/1
f 489/66/1 490/64/1 491/139/1 492/141/1
f 493/110/1 494/115/1 495/116/1 496/111/1
f 497/106/1 498/109/1 499/112/1 500/107/1
f 501/36/1 502/37/1 503/38/1 504/12/1
f 505/110/1 506/115/1 507/116/1 508/111/1
f 509/106/1 510/109/1 511/112/1 512/107/1
f 513/36/1 514/37/1 515/38/1 516/12/1
f 517/110/1 518/115/1 519/116/1 520/111/1
f 521/106/1 522/109/1 523/112/1 524/107/1
f 525/36/1 526/37/1 527/38/1 528/12/1
f 529/11/1 530/1/1 531/4/1 532/35/1
f 533/142/1 534/143/1 535/106/1 536/105/1
f 537/142/1 538/143/1 539/106/1 540/105/1
f 541/10/1 542/12/1 543/2/1 544/1/1
f 545/36/1 546/37/1 547/38/1 548/12/1
f 549/144/1 550/145/1 551/146/1 552/147/1
f 553/148/1 554/144/1 555/147/1 556/149/1
f 557/150/1 558/148/1 559/149/1 560/151/1
f 561/36/1 562/37/1 563/38/1 564/12/1
f 565/152/1 566/153/1 567/154/1 568/155/1
f 569/156/1 570/152/1 571/155/1 572/157/1
f 573/158/1 574/159/1 575/145/1 576/144/1
f 577/160/1 578/158/1 579/144/1 580/148/1
f 581/161/1 582/160/1 583/148/1 584/150/1
f 585/36/1 586/37/1 587/38/1 588/12/1
f 589/162/1 590/163/1 591/153/1 592/152/1
f 593/164/1 594/162/1 595/152/1 596/156/1
f 597/165/1 598/166/1 599/159/1 600/158/1
f 601/167/1 602/165/1 603/158/1 604/160/1
f 605/168/1 606/167/1 607/160/1 608/161/1
f 609/36/1 610/37/1 611/38/1 612/12/1
f 613/152/1 614/153/1 615/154/1 616/155/1
f 617/156/1 618/152/1 619/155/1 620/157/1
f 621/169/1 622/170/1 623/97/1 624/171/1
f 625/172/1 626/169/1 627/171/1 628/173/1
f 629/174/1 630/172/1 631/173/1 632/175/1
f 633/169/1 634/170/1 635/97/1 636/171/1
f 637/172/1 638/169/1 639/171/1 640/173/1
f 641/174/1 642/172/1 643/173/1 644/175/1
f 645/101/1 646/49/1 647/33/1 648/102/1
f 649/103/1 650/101/1 651/102/1 652/104/1
f 653/101/1 654/49/1 655/33/1 656/102/1
f 657/103/1 658/101/1 659/102/1 660/104/1
f 661/1/1 662/2/1 663/3/1 664/4/1
f 665/36/1 666/37/1 667/38/1 668/12/1
f 669/162/1 670/163/1 671/153/1 672/152/1
f 673/164/1 674/162/1 675/152/1 676/156/1
f 677/169/1 678/170/1 679/97/1 680/171/1
f 681/172/1 682/169/1 683/171/1 684/173/1
f 685/174/1 686/172/1 687/173/1 688/175/1
f 689/169/1 690/170/1 691/97/1 692/171/1
f 693/172/1 694/169/1 695/171/1 696/173/1
f 697/174/1 698/172/1 699/173/1 700/175/1
f 701/101/1 702/49/1 703/33/1 704/102/1
f 705/103/1 706/101/1 707/102/1 708/104/1
f 709/113/1 710/60/1 711/49/1 712/101/1
f 713/114/1 714/113/1 715/101/1 716/103/1
f 717/113/1 718/60/1 719/49/1 720/101/1
f 721/114/1 722/113/1 723/101/1 724/103/1
f 725/36/1 726/37/1 727/38/1 728/12/1
f 729/36/1 730/37/1 731/38/1 732/12/1
f 733/152/1 734/153/1 735/154/1 736/155/1
f 737/156/1 738/152/1 739/155/1 740/157/1
f 741/169/1 742/170/1 743/97/1 744/171/1
f 745/172/1 746/169/1 747/171/1 748/173/1
f 749/174/1 750/172/1 751/173/1 752/175/1
f 753/169/1 754/170/1 755/97/1 756/171/1
f 757/172/1 758/169/1 759/171/1 760/173/1
f 761/174/1 762/172/1 763/173/1 764/175/1
f 765/113/1 766/60/1 767/49/1 768/101/1
f 769/114/1 770/113/1 771/101/1 772/103/1
f 773/101/1 774/49/1 775/33/1 776/102/1
f 777/103/1 778/101/1 779/102/1 780/104/1
f 781/101/1 782/49/1 783/33/1 784/102/1
f 785/103/1 786/101/1 787/102/1 788/104/1
f 789/36/1 790/37/1 791/38/1 792/12/1
f 793/36/1 794/37/1 795/38/1 796/12/1
f 797/162/1 798/163/1 799/153/1 800/152/1
f 801/164/1 802/162/1 803/152/1 804/156/1
f 805/113/1 806/60/1 807/49/1 808/101/1
f 809/114/1 810/113/1 811/101/1 812/103/1
f 813/113/1 814/60/1 815/49/1 816/101/1
f 817/114/1 818/113/1 819/101/1 820/103/1
f 821/36/1 822/37/1 823/38/1 824/12/1
f 825/36/1 826/37/1 827/38/1 828/12/1
f 829/152/1 830/153/1 831/154/1 832/155/1
f 833/156/1 834/152/1 835/155/1 836/157/1
f 837/169/1 838/170/1 839/97/1 840/171/1
f 841/172/1 842/169/1 843/171/1 844/173/1
f 845/174/1 846/172/1 847/173/1 848/175/1
f 849/169/1 850/170/1 851/97/1 852/171/1
f 853/172/1 854/169/1 855/171/1 856/173/1
f 857/174/1 858/172/1 859/173/1 860/175/1
f 861/101/1 862/49/1 863/33/1 864/102/1
f 865/103/1 866/101/1 867/102/1 868/104/1
f 869/101/1 870/49/1 871/33/1 872/102/1
f 873/103/1 874/101/1 875/102/1 876/104/1
f 877/36/1 878/37/1 879/38/1 880/12/1
f 881/36/1 882/37/1 883/38/1 884/12/1
f 885/162/1 886/163/1 887/153/1 888/152/1
f 889/164/1 890/162/1 891/152/1 892/156/1
f 893/169/1 894/170/1 895/97/1 896/171/1
f 897/172/1 898/169/1 899/171/1 900/173/1
f 901/174/1 902/172/1 903/173/1 904/175/1
f 905/169/1 906/170/1 907/97/1 908/171/1
f 909/172/1 910/169/1 911/171/1 912/173/1
f 913/174/1 914/172/1 915/173/1 916/175/1
f 917/113/1 918/60/1 919/49/1 920/101/1
f 921/114/1 922/113/1 923/101/1 924/103/1
f 925/113/1 926/60/1 927/49/1 928/101/1
f 929/114/1 930/113/1 931/101/1 932/103/1
f 933/36/1 934/37/1 935/38/1 936/12/1
f 937/10/1 938/12/1 939/2/1 940/1/1
f 941/5/1 942/6/1 943/7/1 944/8/1
f 945/5/1 946/6/1 947/7/1 948/8/1
f 949/9/1 950/10/1 951/1/1 952/11/1
f 953/10/1 954/12/1 955/2/1 956/1/1
f 957/5/1 958/6/1 959/7/1 960/8/1
f 961/5/1 962/6/1 963/7/1 964/8/1
f 965/5/1 966/6/1 967/7/1 968/8/1
f 969/5/1 970/6/1 971/7/1 972/8/1
f 973/5/1 974/6/1 975/7/1 976/8/1
f 977/5/1 978/6/1 979/7/1 980/8/1
f 981/5/1 982/6/1 983/7/1 984/8/1
f 985/5/1 986/6/1 987/7/1 988/8/1
f 989/5/1 990/6/1 991/7/1 992/8/1
f 993/5/1 994/6/1 995/7/1 996/8/1
f 997/5/1 998/6/1 999/7/1 1000/8/1
f 1001/5/1 1002/6/1 1003/7/1 1004/8/1
f 1005/5/1 1006/6/1 1007/7/1 1008/8/1
f 1009/5/1 1010/6/1 1011/7/1 1012/8/1
f 1013/5/1 1014/6/1 1015/7/1 1016/8/1
f 1017/5/1 1018/6/1 1019/7/1 1020/8/1
f 1021/9/1 1022/10/1 1023/1/1 1024/11/1

